# xmcd
#
# Track frame offsets:
#	150
#	22884
#	40918
#	55557
#	71497
#	89445
#	104235
#	124745
#	145129
#	164755
#	180908
#
# Disc length: 2689 seconds
#
# Revision: 0
# Processed by: cddbd v1.5.2PL0 Copyright (c) Steve Scherf et al.
# Submitted via: audiograbber 1.83.01
#
DISCID=930a7f0b
DTITLE=Fernando González Y Paula Batarce - Amor A Pedazos
DYEAR=200
DGENRE=Folk
TTITLE0=No Sé De Tu Corazón 
TTITLE1=Lejos De Mi Pecho
TTITLE2=El Encuentro 
TTITLE3=Todo El Olvido 
TTITLE4=Hubo Un Rey
TTITLE5=Morirme De Amor
TTITLE6=Siento Tu Cariño 
TTITLE7=Rabia Contigo 
TTITLE8=El Querer Intenso 
TTITLE9=Y No Hay Remedio 
TTITLE10=De Tu Carne Misma 
EXTD=http://www.sello-ovejanegra.cl
EXTT0=
EXTT1=
EXTT2=
EXTT3=
EXTT4=
EXTT5=
EXTT6=
EXTT7=
EXTT8=
EXTT9=
EXTT10=
PLAYORDER=
